<mxfile host="65bd71144e">
    <diagram id="JkBaxU73oza7Fzi8BEPE" name="Page-1">
        <mxGraphModel dx="3445" dy="2885" grid="1" gridSize="14" guides="1" tooltips="1" connect="1" arrows="1" fold="1" page="0" pageScale="1" pageWidth="850" pageHeight="1100" math="0" shadow="0">
            <root>
                <mxCell id="0"/>
                <mxCell id="1" parent="0"/>
                <mxCell id="4" value="" style="edgeStyle=none;sketch=1;hachureGap=4;jiggle=2;curveFitting=1;html=1;fontFamily=Architects Daughter;fontSource=https%3A%2F%2Ffonts.googleapis.com%2Fcss%3Ffamily%3DArchitects%2BDaughter;fontSize=16;" edge="1" parent="1" source="2" target="3">
                    <mxGeometry relative="1" as="geometry"/>
                </mxCell>
                <mxCell id="2" value="&lt;h1&gt;&lt;font style=&quot;font-size: 61px;&quot;&gt;User&lt;/font&gt;&lt;/h1&gt;" style="strokeWidth=2;html=1;shape=mxgraph.flowchart.start_2;whiteSpace=wrap;sketch=1;hachureGap=4;jiggle=2;curveFitting=1;fontFamily=Architects Daughter;fontSource=https%3A%2F%2Ffonts.googleapis.com%2Fcss%3Ffamily%3DArchitects%2BDaughter;fontSize=20;" vertex="1" parent="1">
                    <mxGeometry x="-532" y="-378" width="282" height="256" as="geometry"/>
                </mxCell>
                <mxCell id="5" style="edgeStyle=none;sketch=1;hachureGap=4;jiggle=2;curveFitting=1;html=1;fontFamily=Architects Daughter;fontSource=https%3A%2F%2Ffonts.googleapis.com%2Fcss%3Ffamily%3DArchitects%2BDaughter;fontSize=16;" edge="1" parent="1" source="3" target="8">
                    <mxGeometry relative="1" as="geometry">
                        <mxPoint x="322" y="140" as="targetPoint"/>
                    </mxGeometry>
                </mxCell>
                <mxCell id="12" value="" style="edgeStyle=none;sketch=1;hachureGap=4;jiggle=2;curveFitting=1;html=1;fontFamily=Architects Daughter;fontSource=https%3A%2F%2Ffonts.googleapis.com%2Fcss%3Ffamily%3DArchitects%2BDaughter;fontSize=61;" edge="1" parent="1" source="3" target="11">
                    <mxGeometry relative="1" as="geometry"/>
                </mxCell>
                <mxCell id="3" value="&lt;h2&gt;&lt;div style=&quot;text-align: justify; font-size: 32px;&quot;&gt;&lt;ul&gt;&lt;li&gt;&lt;span style=&quot;background-color: initial; font-weight: normal;&quot;&gt;# 1 Login&lt;/span&gt;&lt;/li&gt;&lt;li&gt;&lt;span style=&quot;background-color: initial; font-weight: normal;&quot;&gt;Register&lt;/span&gt;&lt;/li&gt;&lt;li&gt;&lt;span style=&quot;background-color: initial; font-weight: normal;&quot;&gt;Forgot PAssword&lt;/span&gt;&lt;/li&gt;&lt;/ul&gt;&lt;/div&gt;&lt;/h2&gt;" style="whiteSpace=wrap;html=1;fontSize=20;fontFamily=Architects Daughter;strokeWidth=2;sketch=1;hachureGap=4;jiggle=2;curveFitting=1;fontSource=https%3A%2F%2Ffonts.googleapis.com%2Fcss%3Ffamily%3DArchitects%2BDaughter;align=center;" vertex="1" parent="1">
                    <mxGeometry y="-350" width="230" height="305" as="geometry"/>
                </mxCell>
                <mxCell id="14" value="" style="edgeStyle=none;sketch=1;hachureGap=4;jiggle=2;curveFitting=1;html=1;fontFamily=Architects Daughter;fontSource=https%3A%2F%2Ffonts.googleapis.com%2Fcss%3Ffamily%3DArchitects%2BDaughter;fontSize=61;" edge="1" parent="1" source="8" target="13">
                    <mxGeometry relative="1" as="geometry"/>
                </mxCell>
                <mxCell id="8" value="" style="verticalLabelPosition=bottom;verticalAlign=top;html=1;shadow=0;dashed=0;strokeWidth=1;shape=mxgraph.android.phone2;strokeColor=#c0c0c0;sketch=1;hachureGap=4;jiggle=2;curveFitting=1;fontFamily=Architects Daughter;fontSource=https%3A%2F%2Ffonts.googleapis.com%2Fcss%3Ffamily%3DArchitects%2BDaughter;fontSize=61;" vertex="1" parent="1">
                    <mxGeometry x="-154" y="98" width="509.5" height="784" as="geometry"/>
                </mxCell>
                <mxCell id="16" style="edgeStyle=none;sketch=1;hachureGap=4;jiggle=2;curveFitting=1;html=1;entryX=0.55;entryY=-0.004;entryDx=0;entryDy=0;entryPerimeter=0;fontFamily=Architects Daughter;fontSource=https%3A%2F%2Ffonts.googleapis.com%2Fcss%3Ffamily%3DArchitects%2BDaughter;fontSize=61;" edge="1" parent="1" source="11" target="15">
                    <mxGeometry relative="1" as="geometry"/>
                </mxCell>
                <mxCell id="11" value="&lt;h2&gt;&lt;div style=&quot;text-align: justify; font-size: 32px;&quot;&gt;&lt;ul&gt;&lt;li&gt;&lt;span style=&quot;background-color: initial; font-weight: normal;&quot;&gt;# 2 Feed&lt;/span&gt;&lt;/li&gt;&lt;li&gt;&lt;span style=&quot;background-color: initial; font-weight: normal;&quot;&gt;Search and view Boards&lt;/span&gt;&lt;/li&gt;&lt;li&gt;&lt;span style=&quot;background-color: initial; font-weight: normal;&quot;&gt;view and edit comments&lt;/span&gt;&lt;/li&gt;&lt;li&gt;&lt;span style=&quot;background-color: initial; font-weight: normal;&quot;&gt;add new boards&lt;/span&gt;&lt;/li&gt;&lt;li&gt;&lt;span style=&quot;background-color: initial; font-weight: normal;&quot;&gt;user profile settings&amp;nbsp;&lt;/span&gt;&lt;/li&gt;&lt;/ul&gt;&lt;/div&gt;&lt;/h2&gt;" style="whiteSpace=wrap;html=1;fontSize=20;fontFamily=Architects Daughter;strokeWidth=2;sketch=1;hachureGap=4;jiggle=2;curveFitting=1;fontSource=https%3A%2F%2Ffonts.googleapis.com%2Fcss%3Ffamily%3DArchitects%2BDaughter;align=center;" vertex="1" parent="1">
                    <mxGeometry x="476" y="-532" width="588" height="448" as="geometry"/>
                </mxCell>
                <mxCell id="13" value="&lt;br&gt;Mobile user &lt;br&gt;layout" style="whiteSpace=wrap;html=1;fontSize=61;fontFamily=Architects Daughter;verticalAlign=top;strokeColor=#c0c0c0;shadow=0;dashed=0;strokeWidth=1;sketch=1;hachureGap=4;jiggle=2;curveFitting=1;fontSource=https%3A%2F%2Ffonts.googleapis.com%2Fcss%3Ffamily%3DArchitects%2BDaughter;" vertex="1" parent="1">
                    <mxGeometry x="-28" y="1008" width="322" height="313" as="geometry"/>
                </mxCell>
                <mxCell id="15" value="" style="verticalLabelPosition=bottom;verticalAlign=top;html=1;shadow=0;dashed=0;strokeWidth=1;shape=mxgraph.android.phone2;strokeColor=#c0c0c0;sketch=1;hachureGap=4;jiggle=2;curveFitting=1;fontFamily=Architects Daughter;fontSource=https%3A%2F%2Ffonts.googleapis.com%2Fcss%3Ffamily%3DArchitects%2BDaughter;fontSize=61;" vertex="1" parent="1">
                    <mxGeometry x="546" y="98" width="448" height="798" as="geometry"/>
                </mxCell>
            </root>
        </mxGraphModel>
    </diagram>
</mxfile>
